<svg width="14" height="16" viewBox="0 0 14 16" fill="none" xmlns="http://www.w3.org/2000/svg">
<path d="M13.2737 5.48446C12.7529 5.80336 12.3214 6.24921 12.0197 6.78027C11.7181 7.31133 11.5561 7.91024 11.5489 8.52096C11.551 9.20831 11.7546 9.87996 12.1347 10.4527C12.5147 11.0255 13.0543 11.4742 13.6868 11.7433C13.4375 12.5479 13.0684 13.3103 12.592 14.0051C11.9104 14.9863 11.1977 15.9674 10.1133 15.9674C9.02894 15.9674 8.75004 15.3374 7.50034 15.3374C6.28164 15.3374 5.84784 15.9881 4.85634 15.9881C3.86484 15.9881 3.17294 15.0792 2.37764 13.9638C1.32711 12.4012 0.749754 10.5687 0.714844 8.68616C0.714844 5.58776 2.72884 3.94566 4.71174 3.94566C5.76524 3.94566 6.64314 4.63756 7.30414 4.63756C7.93414 4.63756 8.91534 3.90426 10.1133 3.90426C10.7293 3.88837 11.3397 4.02418 11.8909 4.29974C12.442 4.5753 12.9169 4.98215 13.2737 5.48446ZM9.54534 2.59266C10.0734 1.97142 10.3724 1.18779 10.3922 0.372658C10.3931 0.2652 10.3827 0.157946 10.3612 0.0526581C9.4541 0.141272 8.61525 0.573633 8.01674 1.26106C7.48355 1.85754 7.17335 2.62025 7.13884 3.41956C7.13924 3.51677 7.14963 3.61367 7.16984 3.70876C7.24136 3.72228 7.31396 3.72921 7.38674 3.72946C7.80482 3.69619 8.21176 3.57826 8.58284 3.38284C8.95392 3.18741 9.28139 2.91857 9.54534 2.59266Z" fill="white" fill-opacity="0.8"/>
</svg>
