<svg width="7" height="15" viewBox="0 0 7 15" fill="none" xmlns="http://www.w3.org/2000/svg">
<g clip-path="url(#clip0_133_415)">
<path d="M1.46875 11.4455C1.32747 11.4455 1.20671 11.3965 1.10645 11.2985C1.00618 11.2006 0.956055 11.0809 0.956055 10.9397C0.956055 10.7984 1.00846 10.6753 1.11328 10.5705L3.875 7.81563L1.11328 5.06075C1.00846 4.95593 0.956055 4.83288 0.956055 4.6916C0.956055 4.55033 1.00618 4.4307 1.10645 4.33272C1.20671 4.23474 1.32747 4.18575 1.46875 4.18575C1.60091 4.18575 1.7194 4.2336 1.82422 4.3293L4.94141 7.43282C5.05078 7.53308 5.10547 7.66068 5.10547 7.81563C5.10547 7.96146 5.05078 8.08907 4.94141 8.19844L1.82422 11.302C1.72852 11.3977 1.61003 11.4455 1.46875 11.4455Z" fill="#0066CC"/>
</g>
<defs>
<clipPath id="clip0_133_415">
<rect width="5.82" height="14" fill="white" transform="matrix(1 0 0 -1 0.952148 14.802)"/>
</clipPath>
</defs>
</svg>
