<svg width="17" height="16" viewBox="0 0 17 16" fill="none" xmlns="http://www.w3.org/2000/svg">
<path d="M9 14C8.4549 14 7.92843 13.9284 7.42059 13.7853C6.91275 13.6422 6.43529 13.4382 5.98824 13.1735C5.54118 12.9088 5.13529 12.5941 4.77059 12.2294C4.40588 11.8647 4.09118 11.4588 3.82647 11.0118C3.56176 10.5647 3.35784 10.0873 3.21471 9.57941C3.07157 9.07157 3 8.5451 3 8C3 7.45098 3.07157 6.92353 3.21471 6.41765C3.35784 5.91176 3.56078 5.43529 3.82353 4.98824C4.08627 4.54118 4.4 4.13529 4.76471 3.77059C5.12941 3.40588 5.53529 3.09118 5.98235 2.82647C6.42941 2.56176 6.90686 2.35784 7.41471 2.21471C7.92255 2.07157 8.44902 2 8.99412 2C9.54314 2 10.0716 2.07157 10.5794 2.21471C11.0873 2.35784 11.5637 2.56176 12.0088 2.82647C12.4539 3.09118 12.8598 3.40588 13.2265 3.77059C13.5931 4.13529 13.9088 4.54118 14.1735 4.98824C14.4382 5.43529 14.6422 5.91176 14.7853 6.41765C14.9284 6.92353 15 7.45098 15 8C15 8.5451 14.9284 9.07157 14.7853 9.57941C14.6422 10.0873 14.4382 10.5647 14.1735 11.0118C13.9088 11.4588 13.5941 11.8647 13.2294 12.2294C12.8647 12.5941 12.4588 12.9088 12.0118 13.1735C11.5647 13.4382 11.0882 13.6422 10.5824 13.7853C10.0765 13.9284 9.54902 14 9 14ZM7.92941 10.2706L11.2353 8.31176C11.3176 8.26471 11.3716 8.20098 11.3971 8.12059C11.4225 8.0402 11.4216 7.9598 11.3941 7.87941C11.3667 7.79902 11.3137 7.73529 11.2353 7.68824L7.92941 5.72941C7.84706 5.67843 7.76078 5.65686 7.67059 5.66471C7.58039 5.67255 7.50392 5.70294 7.44118 5.75588C7.37843 5.80882 7.34706 5.88039 7.34706 5.97059V10.0235C7.34706 10.1137 7.37647 10.1873 7.43529 10.2441C7.49412 10.301 7.56863 10.3324 7.65882 10.3382C7.74902 10.3441 7.83922 10.3216 7.92941 10.2706Z" fill="#1D1D1F"/>
</svg>
