<svg width="18" height="18" viewBox="0 0 18 18" fill="none" xmlns="http://www.w3.org/2000/svg">
<path d="M8.71598 17.6189C7.94969 17.6189 7.20958 17.5183 6.49566 17.3171C5.78174 17.1158 5.11055 16.8292 4.48208 16.4571C3.85361 16.0849 3.28302 15.6425 2.77032 15.1298C2.25762 14.6171 1.81521 14.0465 1.44309 13.4181C1.07097 12.7896 0.784302 12.1184 0.583081 11.4045C0.38186 10.6906 0.28125 9.95046 0.28125 9.18417C0.28125 8.41236 0.38186 7.67088 0.583081 6.95971C0.784302 6.24855 1.06959 5.57873 1.43896 4.95026C1.80832 4.32179 2.24935 3.75121 2.76205 3.23851C3.27475 2.72581 3.84534 2.2834 4.47381 1.91128C5.10228 1.53916 5.77347 1.25249 6.48739 1.05127C7.20131 0.850048 7.94142 0.749438 8.70771 0.749438C9.47952 0.749438 10.2224 0.850048 10.9363 1.05127C11.6502 1.25249 12.32 1.53916 12.9457 1.91128C13.5715 2.2834 14.142 2.72581 14.6575 3.23851C15.173 3.75121 15.6167 4.32179 15.9889 4.95026C16.361 5.57873 16.6477 6.24855 16.8489 6.95971C17.0501 7.67088 17.1507 8.41236 17.1507 9.18417C17.1507 9.95046 17.0501 10.6906 16.8489 11.4045C16.6477 12.1184 16.361 12.7896 15.9889 13.4181C15.6167 14.0465 15.1743 14.6171 14.6616 15.1298C14.1489 15.6425 13.5784 16.0849 12.9499 16.4571C12.3214 16.8292 11.6516 17.1158 10.9404 17.3171C10.2293 17.5183 9.48778 17.6189 8.71598 17.6189ZM8.71598 16.2131C9.49881 16.2131 10.2417 16.096 10.9446 15.8617C11.6475 15.6274 12.2911 15.2952 12.8755 14.8652C13.4598 14.4352 13.967 13.928 14.397 13.3436C14.827 12.7593 15.1592 12.1156 15.3935 11.4128C15.6278 10.7099 15.7449 9.967 15.7449 9.18417C15.7449 8.40134 15.6264 7.65847 15.3893 6.95558C15.1523 6.25269 14.8188 5.60905 14.3887 5.02469C13.9587 4.44032 13.4516 3.93313 12.8672 3.50313C12.2828 3.07312 11.6392 2.74097 10.9363 2.50667C10.2334 2.27237 9.49054 2.15523 8.70771 2.15523C7.92488 2.15523 7.18339 2.27237 6.48326 2.50667C5.78312 2.74097 5.14087 3.07312 4.5565 3.50313C3.97213 3.93313 3.46633 4.44032 3.03908 5.02469C2.61183 5.60905 2.28105 6.25269 2.04675 6.95558C1.81246 7.65847 1.69531 8.40134 1.69531 9.18417C1.69531 9.967 1.81246 10.7099 2.04675 11.4128C2.28105 12.1156 2.61183 12.7593 3.03908 13.3436C3.46633 13.928 3.97213 14.4352 4.5565 14.8652C5.14087 15.2952 5.7845 15.6274 6.48739 15.8617C7.19029 16.096 7.93315 16.2131 8.71598 16.2131ZM7.26058 12.2273C7.13929 12.299 7.01939 12.3307 6.90086 12.3224C6.78233 12.3141 6.6831 12.2714 6.60316 12.1942C6.52323 12.117 6.48326 12.0178 6.48326 11.8965V6.48009C6.48326 6.3533 6.5246 6.25406 6.6073 6.1824C6.68999 6.11073 6.79198 6.07076 6.91326 6.06249C7.03455 6.05422 7.15032 6.08316 7.26058 6.14932L11.6929 8.7707C11.7977 8.83134 11.868 8.91541 11.9038 9.02291C11.9396 9.13042 11.941 9.23792 11.9079 9.34542C11.8749 9.45292 11.8032 9.53975 11.6929 9.6059L7.26058 12.2273Z" fill="#0066CC"/>
</svg>
