<svg width="15" height="15" viewBox="0 0 15 15" fill="none" xmlns="http://www.w3.org/2000/svg">
<path d="M14.4994 13.004L10.6294 9.13395C11.3304 8.20495 11.7514 7.05295 11.7514 5.80195C11.7514 2.74195 9.26237 0.251953 6.20137 0.251953C3.14137 0.251953 0.651367 2.74195 0.651367 5.80195C0.651367 8.86295 3.14137 11.352 6.20137 11.352C7.45237 11.352 8.60437 10.931 9.53337 10.23L13.4034 14.1C13.5544 14.251 13.7534 14.328 13.9514 14.328C14.1494 14.328 14.3474 14.252 14.4994 14.1C14.8024 13.797 14.8024 13.307 14.4994 13.004ZM1.75137 5.80195C1.75137 3.34795 3.74837 1.35195 6.20137 1.35195C8.65537 1.35195 10.6514 3.34895 10.6514 5.80195C10.6514 8.25495 8.65537 10.252 6.20137 10.252C3.74737 10.252 1.75137 8.25595 1.75137 5.80195Z" fill="white" fill-opacity="0.8"/>
</svg>
