<svg width="14" height="16" viewBox="0 0 14 16" fill="none" xmlns="http://www.w3.org/2000/svg">
<path d="M11.5549 3.83026H10.5344C10.425 3.01925 10.0287 2.27427 9.41724 1.73036C8.80578 1.18645 8.01969 0.879611 7.20145 0.865463C6.38321 0.879611 5.59711 1.18645 4.98566 1.73036C4.3742 2.27427 3.97785 3.01925 3.86845 3.83026H2.84845C2.28723 3.83063 1.7491 4.05368 1.35219 4.45044C0.955281 4.84721 0.732028 5.38525 0.731445 5.94646V13.662C0.731948 14.2231 0.95505 14.7611 1.35179 15.158C1.74853 15.5548 2.2865 15.778 2.84765 15.7787H11.5546C12.1159 15.7782 12.654 15.555 13.0509 15.1582C13.4478 14.7613 13.6709 14.2232 13.6714 13.662V5.94646C13.6709 5.38534 13.4477 4.84737 13.0509 4.45062C12.6541 4.05387 12.1161 3.83077 11.5549 3.83026ZM7.20145 1.96506C7.72886 1.97653 8.23656 2.16763 8.64063 2.50678C9.04469 2.84594 9.32092 3.31283 9.42365 3.83026H4.97925C5.08197 3.31283 5.3582 2.84594 5.76226 2.50678C6.16633 2.16763 6.67404 1.97653 7.20145 1.96506ZM12.5714 13.662C12.5712 13.9315 12.464 14.19 12.2734 14.3807C12.0828 14.5713 11.8244 14.6786 11.5548 14.6791H2.84795C2.57839 14.6786 2.32001 14.5713 2.12946 14.3806C1.93891 14.19 1.83174 13.9315 1.83145 13.662V5.94646C1.83176 5.67694 1.93897 5.41855 2.12955 5.22797C2.32013 5.03739 2.57852 4.93018 2.84805 4.92986H11.555C11.8245 4.93023 12.0829 5.03746 12.2734 5.22804C12.4639 5.41861 12.5711 5.67698 12.5714 5.94646V13.662Z" fill="white" fill-opacity="0.8"/>
</svg>
